<?xml version="1.0" standalone="no"?>
<!DOCTYPE svg PUBLIC "-//W3C//DTD SVG 20010904//EN"
 "http://www.w3.org/TR/2001/REC-SVG-20010904/DTD/svg10.dtd">
<svg version="1.0" xmlns="http://www.w3.org/2000/svg"
 width="512.000000pt" height="512.000000pt" viewBox="0 0 512.000000 512.000000"
 preserveAspectRatio="xMidYMid meet">

<g transform="translate(0.000000,512.000000) scale(0.100000,-0.100000)"
fill="#000000" stroke="none">
<path d="M1744 4680 c-721 -50 -1359 -406 -1613 -900 -97 -189 -139 -373 -128
-559 25 -419 284 -790 734 -1053 l91 -53 -187 -355 c-103 -195 -210 -399 -238
-453 -29 -53 -46 -94 -40 -90 7 4 221 151 477 328 256 177 484 334 507 349
l42 28 123 -21 c329 -55 595 -52 913 9 439 85 843 294 1095 567 223 243 334
507 334 798 0 475 -315 908 -854 1172 -371 181 -813 263 -1256 233z m-424
-1355 l0 -205 -200 0 -200 0 0 205 0 205 200 0 200 0 0 -205z m820 0 l0 -205
-200 0 -200 0 0 205 0 205 200 0 200 0 0 -205z m830 0 l0 -205 -205 0 -205 0
0 205 0 205 205 0 205 0 0 -205z"/>
<path d="M4150 3558 c0 -2 7 -35 15 -73 36 -167 30 -379 -16 -559 -124 -489
-570 -931 -1174 -1165 -299 -116 -672 -188 -985 -192 l-125 -1 55 -50 c205
-184 534 -340 870 -412 181 -38 290 -49 505 -50 193 -1 262 6 436 40 l77 15
483 -334 c266 -184 486 -333 487 -331 2 1 -96 192 -218 424 -122 232 -220 422
-218 424 1 1 41 24 88 50 331 189 574 482 658 795 22 83 25 116 25 246 0 130
-3 163 -26 247 -77 291 -267 538 -566 739 -117 79 -371 207 -371 187z"/>
</g>
</svg>
